<?xml version="1.0" encoding="UTF-8" standalone="no"?>
<svg
   xmlns:dc="http://purl.org/dc/elements/1.1/"
   xmlns:cc="http://creativecommons.org/ns#"
   xmlns:rdf="http://www.w3.org/1999/02/22-rdf-syntax-ns#"
   xmlns:svg="http://www.w3.org/2000/svg"
   xmlns="http://www.w3.org/2000/svg"
   viewBox="0 0 226.28 168.66667"
   height="168.66667"
   width="226.28"
   xml:space="preserve"
   id="svg2"
   version="1.1"><metadata
     id="metadata8"><rdf:RDF><cc:Work
         rdf:about=""><dc:format>image/svg+xml</dc:format><dc:type
           rdf:resource="http://purl.org/dc/dcmitype/StillImage" /></cc:Work></rdf:RDF></metadata><defs
     id="defs6" /><g
     transform="matrix(1.3333333,0,0,-1.3333333,0,168.66667)"
     id="g10"><g
       transform="scale(0.1)"
       id="g12"><path
         id="path14"
         style="fill:#100f0d;fill-opacity:1;fill-rule:nonzero;stroke:none"
         d="m 468.75,730.418 -13.336,12.5 V 913.75 h 83.336 l 3.336,-183.332 z M 414.586,465.414 c 0,0 -50,50 -219.172,5.84 C 26.25,427.082 -36.25,747.918 242.086,765.418 l 8.328,-220.004 c 0,0 30,5.84 33.336,8.34 3.336,2.5 0.836,205.828 0.836,205.828 0,0 122.5,-21.664 130,-76.664 7.5,-55.004 0,-217.504 0,-217.504 z M 285.414,913.75 h 129.172 c 0,0 9.164,-185.832 -4.172,-164.168 -13.328,21.668 -125,50.836 -125,50.836 z M 778.75,702.082 c -27.5,51.25 -120,38.125 -120,38.125 h -80 l 3.75,252.5 c 0,0 0.625,215.623 0,241.873 -0.625,26.25 -1.875,21.88 -25.625,26.88 -23.75,5 -21.461,-17.71 -21.461,-17.71 l 6.672,-291.668 -85,-1.664 1.664,160.002 h 31.664 l 16.672,33.33 c -15,21.67 -111.672,6.67 -111.672,6.67 -140,-45 -25,-128.34 -25,-128.34 l 18.336,28.34 c -51.664,66.67 25,60 25,60 V 947.082 l -131.664,-6.664 c 0,0 -1.672,261.662 0,281.662 1.664,20 25,0 25,0 12.078,5 17.914,31.25 17.914,31.25 l -62.5,8.85 c -110,20.09 -115,-71.35 -108.75,-85.1 6.25,-13.74 37.5,-36.24 37.5,-36.24 l 21.25,26.24 c -50,58.75 23.75,60 23.75,60 L 245,800.832 C 15,804.582 0,614.582 0,614.582 c 7.5,-206.25 181.25,-216.25 210,-195 28.75,21.25 158.75,22.5 158.75,22.5 115,-27.5 108.75,-57.5 66.25,-191.254 -42.5,-133.75 -170,-131.25 -215,-128.75 -45,2.5 -110,88.75 -110,88.75 L 72.5,192.078 C 186.25,-2.92188 395,62.0781 478.75,233.328 562.5,404.582 452.5,458.332 452.5,458.332 l 5,246.25 83.75,-5 L 555,28.3281 h 26.25 l 2.5,675.0039 110,2.5 c 85,-12.5 30,-64.09 30,-64.09 l 28.75,-27.16 c 0,0 53.75,36.25 26.25,87.5" /><path
         id="path16"
         style="fill:#100f0d;fill-opacity:1;fill-rule:nonzero;stroke:none"
         d="m 758.738,188.16 -13.172,-10.422 c -10.015,11.641 -22.578,17.473 -37.695,17.473 -13.891,0 -25.586,-4.762 -35.09,-14.262 -9.496,-9.488 -14.246,-21.187 -14.246,-35.09 0,-13.879 4.75,-25.578 14.246,-35.089 9.504,-9.489 21.199,-14.2387 35.09,-14.2387 14.91,0 27.168,5.5077 36.774,16.5467 l 13.484,-10.418 c -6.332,-7.3514 -13.789,-13.0311 -22.371,-17.0116 -8.578,-3.9882 -17.875,-5.9765 -27.887,-5.9765 -17.976,0 -33.508,6.539 -46.578,19.6172 -13.074,13.0699 -19.613,28.5899 -19.613,46.5699 0,18.391 6.539,34.032 19.613,46.903 13.07,12.859 28.602,19.289 46.578,19.289 10.422,0 19.922,-2.039 28.5,-6.121 8.578,-4.09 16.035,-10.008 22.367,-17.77" /><path
         id="path18"
         style="fill:#100f0d;fill-opacity:1;fill-rule:nonzero;stroke:none"
         d="m 829.172,195.211 c -13.899,0 -25.586,-4.762 -35.09,-14.262 -9.504,-9.488 -14.246,-21.187 -14.246,-35.09 0,-13.879 4.742,-25.578 14.246,-35.089 9.504,-9.489 21.191,-14.2387 35.09,-14.2387 13.68,0 25.32,4.7967 34.93,14.3987 9.597,9.601 14.406,21.25 14.406,34.929 0,13.692 -4.809,25.332 -14.406,34.942 -9.61,9.597 -21.25,14.41 -34.93,14.41 z m 0,16.84 c 18.379,0 34.012,-6.43 46.883,-19.289 12.871,-12.871 19.304,-28.512 19.304,-46.903 0,-17.98 -6.433,-33.5 -19.304,-46.5699 -12.871,-13.0782 -28.504,-19.6172 -46.883,-19.6172 -17.981,0 -33.508,6.539 -46.582,19.6172 -13.074,13.0699 -19.61,28.5899 -19.61,46.5699 0,18.391 6.536,34.032 19.61,46.903 13.074,12.859 28.601,19.289 46.582,19.289" /><path
         id="path20"
         style="fill:#100f0d;fill-opacity:1;fill-rule:nonzero;stroke:none"
         d="m 1082.25,83.3516 h -16.86 v 79.9764 c 0,9.602 -3.17,17.32 -9.5,23.141 -6.33,5.82 -13.79,8.742 -22.36,8.742 -8.38,0 -15.79,-2.922 -22.22,-8.742 -6.44,-5.821 -9.66,-13.539 -9.66,-23.141 V 83.3516 h -16.853 v 79.9764 c 0,9.602 -3.164,17.32 -9.504,23.141 -6.328,5.82 -13.789,8.742 -22.363,8.742 -8.379,0 -15.782,-2.922 -22.215,-8.742 -6.438,-5.821 -9.66,-13.539 -9.66,-23.141 V 83.3516 H 904.199 V 208.691 l 14.102,-11.031 c 9.597,9.602 21.14,14.391 34.629,14.391 8.164,0 15.925,-1.942 23.293,-5.821 7.351,-3.871 13.062,-8.992 17.156,-15.32 9.801,14.102 23.181,21.141 40.151,21.141 7.14,0 13.63,-1.321 19.45,-3.973 5.82,-2.668 10.83,-6.078 15.02,-10.269 4.18,-4.188 7.61,-9.188 10.26,-15.008 2.66,-5.832 3.99,-12.321 3.99,-19.473 V 83.3516" /><path
         id="path22"
         style="fill:#100f0d;fill-opacity:1;fill-rule:nonzero;stroke:none"
         d="m 1161.87,96.5313 c 13.89,0 25.59,4.7497 35.08,14.2387 9.51,9.511 14.26,21.21 14.26,35.089 0,13.903 -4.75,25.602 -14.26,35.09 -9.49,9.5 -21.19,14.262 -35.08,14.262 -13.69,0 -25.34,-4.813 -34.94,-14.41 -9.6,-9.61 -14.4,-21.25 -14.4,-34.942 0,-13.679 4.8,-25.328 14.4,-34.929 9.6,-9.602 21.25,-14.3987 34.94,-14.3987 z m 0,-16.8594 c -19.61,0 -36.06,7.3594 -49.34,22.0661 V 0 h -16.86 v 208.691 l 18.39,-17.16 c 13.28,13.68 29.22,20.52 47.81,20.52 18.38,0 34.02,-6.43 46.88,-19.289 12.87,-12.871 19.31,-28.512 19.31,-46.903 0,-17.98 -6.44,-33.5 -19.31,-46.5699 -12.86,-13.0782 -28.5,-19.6172 -46.88,-19.6172" /><path
         id="path24"
         style="fill:#100f0d;fill-opacity:1;fill-rule:nonzero;stroke:none"
         d="m 1298.5,195.211 c -13.9,0 -25.6,-4.762 -35.09,-14.262 -9.5,-9.488 -14.25,-21.187 -14.25,-35.09 0,-13.879 4.75,-25.578 14.25,-35.089 9.49,-9.489 21.19,-14.2387 35.09,-14.2387 13.68,0 25.32,4.7967 34.93,14.3987 9.6,9.601 14.4,21.25 14.4,34.929 0,13.692 -4.8,25.332 -14.4,34.942 -9.61,9.597 -21.25,14.41 -34.93,14.41 z m 47.8,-95 c -13.28,-13.6915 -29.22,-20.5391 -47.8,-20.5391 -17.98,0 -33.51,6.539 -46.59,19.6172 -13.07,13.0699 -19.61,28.5899 -19.61,46.5699 0,18.391 6.54,34.032 19.61,46.903 13.08,12.859 28.61,19.289 46.59,19.289 18.58,0 34.52,-6.84 47.8,-20.52 l 18.39,17.16 V 83.3516 l -18.39,16.8594" /><path
         id="path26"
         style="fill:#100f0d;fill-opacity:1;fill-rule:nonzero;stroke:none"
         d="M 1378.12,83.3516 V 208.691 h 13.13 l 1.27,-11.652 c 9.6,10.012 21.45,15.012 35.55,15.012 14.1,0 25.94,-4.789 35.54,-14.391 9.6,-9.609 14.41,-21.461 14.41,-35.551 V 83.3516 h -16.86 v 78.7574 c 0,9.602 -3.21,17.512 -9.65,23.743 -6.43,6.226 -14.24,9.359 -23.44,9.359 -9.19,0 -17.01,-3.223 -23.44,-9.66 -6.44,-6.442 -9.66,-14.25 -9.66,-23.442 V 83.3516 h -16.85" /><path
         id="path28"
         style="fill:#100f0d;fill-opacity:1;fill-rule:nonzero;stroke:none"
         d="m 1591.35,208.691 h -16.86 v -78.75 c 0,-8.793 -3.11,-16.511 -9.34,-23.14 -6.23,-6.653 -14.15,-9.9612 -23.75,-9.9612 -8.78,0 -16.5,3.2112 -23.14,9.6482 -6.64,6.434 -9.96,14.25 -9.96,23.453 v 78.75 h -16.85 v -78.75 c 0,-14.113 4.8,-25.953 14.4,-35.5504 9.6,-9.6093 21.45,-14.4101 35.55,-14.4101 12.66,0 23.7,4.1797 33.09,12.5586 V 54.2383 c 0,-2.8477 -0.41,-5.5469 -1,-8.168 4.14,-6.6719 5.04,-14.2187 5.2,-25.1797 8.3,9.3985 12.66,20.4492 12.66,33.3477 V 208.691" /><path
         id="path30"
         style="fill:#141211;fill-opacity:1;fill-rule:nonzero;stroke:none"
         d="M 824.375,259.41 H 793.75 l -7.156,16.004 c -10.262,-6.461 -43.723,-16.004 -78.508,-16.004 -46.012,0 -94.336,16.703 -94.336,79.344 0,66.004 62.215,79.195 111.988,79.195 33.184,0 60.844,-5.867 60.844,-5.867 -0.863,32.637 -23.074,42.578 -49.84,42.578 -41.785,0 -94.664,-24.246 -94.664,-24.246 v 35 c 26.668,16.668 53.336,25 120.008,30 2.254,0.168 4.426,0.25 6.519,0.25 59.895,0 56.395,-66.707 56.395,-66.707 L 824.375,259.41 m -87.449,124.836 c -10.09,0 -22.199,-1.98 -36.715,-6.703 -44.637,-14.523 -52.363,-36.836 -44.785,-57.102 6.258,-16.726 18.976,-25.957 27.488,-30.437 7.051,-3.719 18.629,-6.059 31.566,-6.059 29.129,0 65.176,11.848 72.102,46.469 0.863,4.313 0.789,53.832 -49.656,53.832" /><path
         id="path32"
         style="fill:#100f0d;fill-opacity:1;fill-rule:nonzero;stroke:none"
         d="m 865.422,490.414 h 43.328 v 42.5 h 30 v -46.66 h 40.828 c 0,0 6.672,-25 0,-25 -6.656,0 -40.828,0 -40.828,0 l 0.828,-191.672 -30,3.332 0.844,188.34 -45,0.828 v 28.332" /><path
         id="path34"
         style="fill:#100f0d;fill-opacity:1;fill-rule:nonzero;stroke:none"
         d="m 1010.42,490.414 h 43.33 v 42.5 h 30 v -46.66 h 40.83 c 0,0 6.67,-25 0,-25 -6.66,0 -40.83,0 -40.83,0 l 0.83,-191.672 -30,3.332 0.84,188.34 -45,0.828 v 28.332" /><path
         id="path36"
         style="fill:#100f0d;fill-opacity:1;fill-rule:nonzero;stroke:none"
         d="m 1263.98,292.035 c -54.54,0 -98.76,38.281 -98.76,85.508 0,47.215 44.22,85.496 98.76,85.496 54.55,0 98.75,-38.281 98.75,-85.496 0,-47.227 -44.2,-85.508 -98.75,-85.508 z m 0,203.633 c -75.35,0 -136.43,-52.891 -136.43,-118.125 0,-65.246 61.08,-118.133 136.43,-118.133 75.36,0 136.44,52.887 136.44,118.133 0,65.234 -61.08,118.125 -136.44,118.125" /><path
         id="path38"
         style="fill:#100f0d;fill-opacity:1;fill-rule:nonzero;stroke:none"
         d="m 1560.64,292.035 c -54.54,0 -98.75,38.281 -98.75,85.508 0,47.215 44.21,85.496 98.75,85.496 54.55,0 98.76,-38.281 98.76,-85.496 0,-47.227 -44.21,-85.508 -98.76,-85.508 z m 0,203.633 c -75.35,0 -136.43,-52.891 -136.43,-118.125 0,-65.246 61.08,-118.133 136.43,-118.133 75.36,0 136.44,52.887 136.44,118.133 0,65.234 -61.08,118.125 -136.44,118.125" /></g></g></svg>